<?xml version="1.0" ?>
<!DOCTYPE svg  PUBLIC '-//W3C//DTD SVG 1.1//EN'  'http://www.w3.org/Graphics/SVG/1.1/DTD/svg11.dtd'>
<!-- Uploaded to: SVG Repo, www.svgrepo.com, Generator: SVG Repo Mixer Tools -->
<svg fill="#000000" width="800px" height="800px" viewBox="0 0 64 64" style="fill-rule:evenodd;clip-rule:evenodd;stroke-linejoin:round;stroke-miterlimit:2;" version="1.1" xml:space="preserve" xmlns="http://www.w3.org/2000/svg" xmlns:serif="http://www.serif.com/" xmlns:xlink="http://www.w3.org/1999/xlink">
<g transform="matrix(1,0,0,1,-288,-288)">
<g id="Icon">
<path d="M341.92,327.476C341.92,321.972 337.458,317.509 331.954,317.509C324.951,317.509 315.265,317.509 308.262,317.509C302.757,317.509 298.295,321.972 298.295,327.476C298.295,330.299 298.295,333.156 298.295,334.992C298.295,336.649 299.638,337.992 301.295,337.992C308.33,337.992 331.886,337.992 338.92,337.992C340.577,337.992 341.92,336.649 341.92,334.992L341.92,327.476Z" style="fill:rgb(248,172,58);"/>
<path d="M337.057,318.913C337.948,320.406 338.46,322.151 338.46,324.016L338.46,331.532C338.46,333.189 337.117,334.532 335.46,334.532L298.295,334.532L298.295,334.992C298.295,336.649 299.638,337.992 301.295,337.992C308.33,337.992 331.886,337.992 338.92,337.992C340.577,337.992 341.92,336.649 341.92,334.992L341.92,327.476C341.92,323.836 339.969,320.653 337.057,318.913Z" style="fill:rgb(243,148,4);"/>
<path d="M345.062,335.992L295.062,335.992C294.267,335.992 293.504,336.308 292.941,336.871C292.378,337.434 292.062,338.197 292.062,338.992C292.062,339.254 292.062,339.521 292.062,339.783C292.062,340.578 292.378,341.341 292.941,341.904C293.504,342.467 294.267,342.783 295.062,342.783L345.062,342.783C345.858,342.783 346.621,342.467 347.184,341.904C347.746,341.341 348.062,340.578 348.062,339.783C348.062,339.521 348.062,339.254 348.062,338.992C348.062,338.197 347.746,337.434 347.184,336.871C346.621,336.308 345.858,335.992 345.062,335.992Z" style="fill:rgb(245,240,229);"/>
<path d="M345.361,336.007C345.576,336.427 345.692,336.897 345.692,337.378C345.692,337.639 345.692,337.907 345.692,338.168C345.692,338.964 345.376,339.727 344.813,340.289C344.251,340.852 343.488,341.168 342.692,341.168L292.692,341.168C292.592,341.168 292.492,341.163 292.394,341.153C292.535,341.428 292.719,341.682 292.941,341.904C293.504,342.467 294.267,342.783 295.062,342.783L345.062,342.783C345.858,342.783 346.621,342.467 347.184,341.904C347.746,341.341 348.062,340.578 348.062,339.783C348.062,339.521 348.062,339.254 348.062,338.992C348.062,338.197 347.746,337.434 347.184,336.871C346.692,336.379 346.047,336.076 345.361,336.007Z" style="fill:rgb(234,222,199);"/>
<g transform="matrix(1.19758,0,0,1.31169,281.785,295.515)">
<path d="M31.127,17.534L31.165,24.004C31.167,24.425 31.544,24.765 32.004,24.762C32.465,24.76 32.837,24.417 32.835,23.996L32.797,17.526C32.795,17.105 32.418,16.766 31.958,16.768C31.497,16.77 31.125,17.114 31.127,17.534Z" style="fill:rgb(243,148,4);"/>
</g>
<g transform="matrix(1.19758,0,0,1.31169,281.785,295.515)">
<path d="M25.453,17.534L25.491,24.004C25.493,24.425 25.869,24.765 26.33,24.762C26.791,24.76 27.163,24.417 27.161,23.996L27.123,17.526C27.12,17.105 26.744,16.766 26.283,16.768C25.822,16.77 25.45,17.114 25.453,17.534Z" style="fill:rgb(243,148,4);"/>
</g>
<g transform="matrix(1.19758,0,0,1.31169,281.785,295.515)">
<path d="M36.763,17.534L36.801,24.004C36.804,24.425 37.18,24.765 37.641,24.762C38.102,24.76 38.474,24.417 38.471,23.996L38.433,17.526C38.431,17.105 38.055,16.766 37.594,16.768C37.133,16.77 36.761,17.114 36.763,17.534Z" style="fill:rgb(243,148,4);"/>
</g>
<g transform="matrix(-1.125,-1.94342e-16,1.23391e-16,-1.50552,349.291,333.314)">
<path d="M31.145,15.136C31.145,15.136 31.347,15.542 31.57,15.988C31.901,16.65 31.901,17.35 31.57,18.012L30.719,19.715C30.299,20.555 30.299,21.445 30.719,22.285C30.942,22.731 31.145,23.136 31.145,23.136C31.278,23.403 31.769,23.558 32.241,23.483C32.714,23.408 32.989,23.13 32.855,22.864C32.855,22.864 32.653,22.458 32.43,22.012C32.099,21.35 32.099,20.65 32.43,19.988L33.281,18.285C33.701,17.445 33.701,16.555 33.281,15.715C33.058,15.269 32.855,14.864 32.855,14.864C32.722,14.597 32.231,14.442 31.759,14.517C31.286,14.592 31.011,14.87 31.145,15.136Z" style="fill:rgb(245,240,229);"/>
</g>
<g transform="matrix(-1.125,-1.94342e-16,1.23391e-16,-1.50552,356.062,333.314)">
<path d="M31.145,15.136C31.145,15.136 31.347,15.542 31.57,15.988C31.901,16.65 31.901,17.35 31.57,18.012L30.719,19.715C30.299,20.555 30.299,21.445 30.719,22.285C30.942,22.731 31.145,23.136 31.145,23.136C31.278,23.403 31.769,23.558 32.241,23.483C32.714,23.408 32.989,23.13 32.855,22.864C32.855,22.864 32.653,22.458 32.43,22.012C32.099,21.35 32.099,20.65 32.43,19.988L33.281,18.285C33.701,17.445 33.701,16.555 33.281,15.715C33.058,15.269 32.855,14.864 32.855,14.864C32.722,14.597 32.231,14.442 31.759,14.517C31.286,14.592 31.011,14.87 31.145,15.136Z" style="fill:rgb(245,240,229);"/>
</g>
<g transform="matrix(-1.125,-1.94342e-16,1.23391e-16,-1.50552,362.834,333.314)">
<path d="M31.145,15.136C31.145,15.136 31.347,15.542 31.57,15.988C31.901,16.65 31.901,17.35 31.57,18.012L30.719,19.715C30.299,20.555 30.299,21.445 30.719,22.285C30.942,22.731 31.145,23.136 31.145,23.136C31.278,23.403 31.769,23.558 32.241,23.483C32.714,23.408 32.989,23.13 32.855,22.864C32.855,22.864 32.653,22.458 32.43,22.012C32.099,21.35 32.099,20.65 32.43,19.988L33.281,18.285C33.701,17.445 33.701,16.555 33.281,15.715C33.058,15.269 32.855,14.864 32.855,14.864C32.722,14.597 32.231,14.442 31.759,14.517C31.286,14.592 31.011,14.87 31.145,15.136Z" style="fill:rgb(245,240,229);"/>
</g>
</g>
</g>
</svg>